<svg xmlns="http://www.w3.org/2000/svg" viewBox="0 0 241 10"><title>bar_bg</title><g id="bar_bg"><g style="opacity:0.2"><path d="M5.8-.43.19,10.93l4.14.22L9.94-.22Zm8.27,0L8.47,10.92l4.14.22L18.21-.23Zm8.28,0L16.74,10.91l4.14.22L26.48-.24Zm8.27,0L25,10.94l4.13.21L34.76-.21Zm9.13,0-5.6,11.36,4.13.22L43.89-.22ZM48-.44,42.42,10.92l4.14.22L52.16-.23Zm8.27,0L50.7,10.91l4.13.22L60.44-.24Zm8.27,0L59,10.94l4.14.21L68.71-.21Zm9.13,0L68.1,10.93l4.14.22L77.84-.22ZM82-.44l-5.6,11.36,4.13.22L86.12-.23Zm8.27,0-5.6,11.36,4.14.22L94.39-.24Zm8.28,0L92.92,10.94l4.14.21,5.6-11.36Zm8.13,0-5.6,11.36,4.13.22L110.8-.22Zm8.27,0-5.6,11.36,4.14.22,5.6-11.37Zm8.28,0L117.6,10.91l4.14.22L127.35-.24Zm8.27,0-5.6,11.37,4.14.21,5.6-11.36Zm9.13,0L135,10.93l4.14.22,5.6-11.37Zm8.28,0-5.61,11.36,4.14.22L153-.23Zm8.27,0-5.6,11.36,4.13.22L161.3-.24Zm8.28,0-5.61,11.37,4.14.21,5.6-11.36Zm9.13,0L169,10.93l4.14.22L178.7-.22Zm8.27,0-5.6,11.36,4.13.22L187-.23Zm8.27,0-5.6,11.36,4.14.22,5.6-11.37Zm7.71,0-5.61,11.36,4.14.22L203-.23Zm8.27,0-5.6,11.36,4.14.22,5.6-11.37Zm17.41,0-5.61,11.36,4.14.22,5.6-11.37Zm-8,0L210.9,10.93l4.14.22L220.65-.22Zm16.55,0-5.61,11.36,4.14.22,5.6-11.37Z" style="fill:#fff;fill-rule:evenodd"/></g></g></svg>