<svg id="headerlogo_hn" xmlns="http://www.w3.org/2000/svg" xmlns:xlink="http://www.w3.org/1999/xlink" viewBox="0 0 470 35"><defs><linearGradient id="未命名的渐变_21" x1="18.19" x2="18.19" y2="35" gradientUnits="userSpaceOnUse"><stop offset="0" stop-color="#1799ef"/><stop offset="0.02" stop-color="#00b0ff"/><stop offset="0.5" stop-color="#00a6ff"/><stop offset="0.9" stop-color="#2255e0"/></linearGradient><linearGradient id="未命名的渐变_21-2" x1="78.15" y1="2.1" x2="78.15" y2="24.34" xlink:href="#未命名的渐变_21"/><linearGradient id="未命名的渐变_21-3" x1="108.98" y1="26.04" x2="108.98" y2="32.17" xlink:href="#未命名的渐变_21"/><linearGradient id="未命名的渐变_21-4" x1="101.78" y1="25.95" x2="101.78" y2="32.27" xlink:href="#未命名的渐变_21"/><linearGradient id="未命名的渐变_21-5" x1="96.05" y1="25.95" x2="96.05" y2="32.27" xlink:href="#未命名的渐变_21"/><linearGradient id="未命名的渐变_21-6" x1="90.98" y1="26.04" x2="90.98" y2="32.17" xlink:href="#未命名的渐变_21"/><linearGradient id="未命名的渐变_21-7" x1="85.82" y1="26.04" x2="85.82" y2="32.17" xlink:href="#未命名的渐变_21"/><linearGradient id="未命名的渐变_21-8" x1="80.74" y1="26.04" x2="80.74" y2="32.17" xlink:href="#未命名的渐变_21"/><linearGradient id="未命名的渐变_21-9" x1="75.66" y1="26.04" x2="75.66" y2="32.17" xlink:href="#未命名的渐变_21"/><linearGradient id="未命名的渐变_21-10" x1="68.06" y1="26.04" x2="68.06" y2="32.17" xlink:href="#未命名的渐变_21"/><linearGradient id="未命名的渐变_21-11" x1="61.91" y1="26.04" x2="61.91" y2="32.17" xlink:href="#未命名的渐变_21"/><linearGradient id="未命名的渐变_21-12" x1="57.12" y1="26.04" x2="57.12" y2="32.17" xlink:href="#未命名的渐变_21"/><linearGradient id="未命名的渐变_21-13" x1="52.41" y1="26.04" x2="52.41" y2="32.17" xlink:href="#未命名的渐变_21"/><linearGradient id="未命名的渐变_21-14" x1="46.71" y1="25.95" x2="46.71" y2="32.27" xlink:href="#未命名的渐变_21"/><linearGradient id="未命名的渐变_21-15" x1="124.5" y1="0.5" x2="124.5" y2="34.5" xlink:href="#未命名的渐变_21"/><linearGradient id="未命名的渐变_35" x1="150.36" y1="15.15" x2="150.36" y2="17.9" gradientUnits="userSpaceOnUse"><stop offset="0" stop-color="#17fdef"/><stop offset="0" stop-color="#14f4f1"/><stop offset="0.01" stop-color="#0ddaf6"/><stop offset="0.02" stop-color="#00b1ff"/><stop offset="0.02" stop-color="#00b0ff"/><stop offset="0.5" stop-color="#00a6ff"/><stop offset="0.67" stop-color="#0e86f3"/><stop offset="0.9" stop-color="#2255e0"/></linearGradient><linearGradient id="未命名的渐变_35-2" x1="181.43" y1="3.37" x2="181.43" y2="32.78" xlink:href="#未命名的渐变_35"/><linearGradient id="未命名的渐变_35-3" x1="214.33" y1="2.56" x2="214.33" y2="32.4" xlink:href="#未命名的渐变_35"/><linearGradient id="未命名的渐变_35-4" x1="237.05" y1="4.46" x2="237.05" y2="32.68" xlink:href="#未命名的渐变_35"/><linearGradient id="未命名的渐变_35-5" x1="260.02" y1="2.46" x2="260.02" y2="32.06" xlink:href="#未命名的渐变_35"/><linearGradient id="未命名的渐变_35-6" x1="292.04" y1="2.15" x2="292.04" y2="32.68" xlink:href="#未命名的渐变_35"/><linearGradient id="未命名的渐变_35-7" x1="324.11" y1="1.56" x2="324.11" y2="33" xlink:href="#未命名的渐变_35"/><linearGradient id="未命名的渐变_35-8" x1="356.01" y1="3.31" x2="356.01" y2="31.75" xlink:href="#未命名的渐变_35"/><linearGradient id="未命名的渐变_35-9" x1="389.29" y1="17.9" x2="389.29" y2="20.26" xlink:href="#未命名的渐变_35"/><linearGradient id="未命名的渐变_35-10" x1="422.6" y1="1.93" x2="422.6" y2="32.78" xlink:href="#未命名的渐变_35"/><linearGradient id="未命名的渐变_35-11" x1="454.52" y1="2.37" x2="454.52" y2="32.84" xlink:href="#未命名的渐变_35"/></defs><title>hnheaderlogo_hn</title><path d="M36.24,5.3c-.79-3.14-4.92-5-10.47-5.3l.51,2c2,.45,3.37,1.34,3.68,2.59.71,2.86-4.22,6.52-11,8.22-.44.11-.88.2-1.31.29a23.57,23.57,0,0,1,.81-4c.74-2.37,1.81-3.93,3.1-3.93A2.08,2.08,0,0,1,23,5.88l1.51-.39C23,2.29,21,.31,18.67.31,14.83.31,11.62,6,10.74,13.54c-2.93-.27-5-1.27-5.41-2.86-.55-2.21,2.29-4.91,6.75-6.8L11.7,2.4C4.08,5.3-.89,10.17.13,14.27c.79,3.13,4.9,5,10.43,5.29C11,28.24,14.46,35,18.67,35c3.84,0,7-5.63,7.93-13.2l-2.68.68c-.54,4.05-1.74,6.88-3.13,6.88-1.75,0-3.19-4.47-3.41-10.24,1-.16,2-.36,3-.62C30.34,16,37.45,10.12,36.24,5.3Z" style="fill:url(#未命名的渐变_21)"/><path d="M84.22,15.11a.71.71,0,0,0,0,.14c0,.05-.17.18-.2.28a2.53,2.53,0,0,0-.42.1,3.9,3.9,0,0,0-.86.4s-.12.08-.15.12h0a3.23,3.23,0,0,1,.14-.5c0-.09-.06-.17,0-.29s.07-.17.1-.27v-.26a3.61,3.61,0,0,1,.24-.65l.11-.27s0,0,0,0a1.58,1.58,0,0,0,.49-.17l.39-.1s0,0,0,0a1,1,0,0,1,.37.14C84.66,14,84.31,14.82,84.22,15.11Zm3.59-5.94c0-.21.51-.37.51-.37.23-.1.46-.15.7-.24a.54.54,0,0,0,.3-.16,2.28,2.28,0,0,1,.8-.15,3.6,3.6,0,0,0,.86.21v.11a.41.41,0,0,0,.15.23V9c0,.17-.17.25-.23.39-.08,0-.2-.06-.26,0l-.06,0a8,8,0,0,1-1.48.77l-.42,0h-.19c-.25.06-.84,0-.91-.27C87.55,9.75,87.65,9.2,87.81,9.17Zm2.39,3.58a.87.87,0,0,0-.15.25,3.31,3.31,0,0,1-.94.54c-.33.24-.84.49-1.21.19a1.48,1.48,0,0,1-.13-.39.52.52,0,0,0,.07-.31.83.83,0,0,1,0-.41l.27-.29a2.9,2.9,0,0,1,.65-.35,3.16,3.16,0,0,1,1.51-.41s.06,0,.07,0a.23.23,0,0,1,0,.2C90.36,12.12,90.2,12.47,90.2,12.75Zm5.26,6.51v-.14c-.15-.12-.11-.11-.17,0V19s0,0-.07,0V19s0,0-.06,0l0-.13,0,.05-.06-.09a0,0,0,1,1,0,0l.11-.05,0-.07a.47.47,0,0,0-.14.14l0-.19h.09s0,0,0,0c-.23,0-.11-.28-.23,0l-.06.06s0,0,0,0,0-.1,0-.15a.47.47,0,0,1-.17,0s.08,0,.1-.06l-.06,0v-.06s0,0,0,0l.09,0s0,0,0,0l-.1-.11a0,0,0,0,0,0,0L94.63,18s0,0,0,0l-.11,0a0,0,0,0,1,0-.06l0,.1.09,0a.88.88,0,0,1,0,.17h0L94.4,18l-.05,0s0,0-.06,0l.11-.08h0c-.11-.07-.31-.08-.36.06l-.12.07s-.06,0-.06,0l-.34.23a5,5,0,0,0-.7.21,9.37,9.37,0,0,0-2.09.52l-.36.05a13.81,13.81,0,0,0-1.88.21,1.56,1.56,0,0,0-.5-.17c-.13,0-.15-.19-.19-.28-.57-1.14-.41-.94.21-1.71a1.56,1.56,0,0,1,.3-.27c.36-.25.68,0,.82-.16a3.15,3.15,0,0,0,.42-.09,1,1,0,0,0,.25-.12c.18-.08.48,0,.68-.13,0,0,.22-.07.29-.07.46-.07.87-.07,1.33-.18.1,0,.3-.29.31-.37s.2-.27.26-.37.3-.23.34-.46a2.46,2.46,0,0,0,0-.31c0-.12,0-.24.08-.36s-.6-1-.58-1.3.56-1.42.56-1.42.1-.64.25-.66.1-.36.1-.4c0-.31.19-.55.19-.84,0-.11-.08-.23-.08-.36s.07-.16.06-.25-.19-.35-.19-.57L93.11,8c-.34-.49,0-.81-.8-1.13,0,.05-.09,0-.1,0-.32,0-.51-.39-1-.29-.2,0-.41-.1-.58-.09a18.84,18.84,0,0,0-2.24,1.13c-.06,0-.25,0-.33,0s0,0,0,0c0-1,.79-2-.55-2.65a1.86,1.86,0,0,0-1-.31c0,.2-.07.43-.06.64a3,3,0,0,0-.41.77,14.94,14.94,0,0,1-.46,2.31c-.33.37-.29.24-.67.44a4.48,4.48,0,0,1-.43.26,6.15,6.15,0,0,0-1,.73s-.05,0,0,0c.39,0,.42,0,.64.32.33,0,.61-.29,1-.22,0,.15,0,.25,0,.39s.06.15.08.14a1.65,1.65,0,0,1-.3.53c0,.41-1.33,1.32-1.6,1.49A4.46,4.46,0,0,1,83.43,11a.61.61,0,0,1,0-.33c0-.12-.48-.62-.53-.9,0,0,0,0,0,0-.56-.11-.18-.58-.49-.69-.13,0-.22.62-.36.73A.39.39,0,0,0,82,10l-.07.05c0,.32-.43.64-.47.86a4.63,4.63,0,0,0,0,1.39,11.66,11.66,0,0,1-.25,2.25c-.08.68-.54.83-.23,1.58a2.11,2.11,0,0,0,1,.6c.16,0,.27.46.43.55s.39.32.6.42.85,0,1,.26.38,2.38,1,2.58c0,0,0,0,0,0,0,.18.38.34.52.43a3.48,3.48,0,0,0,2,.6,2.91,2.91,0,0,0,.88,0,3.2,3.2,0,0,0,2-.17l.49-.1.43,0c.09,0,1-.23.91-.31a.25.25,0,0,1,.12,0c.25-.06,1.73-.49,1.71-.44s.38-.15.44-.19h-.09l0-.05.08-.11h0l0-.1h0l.06,0s0,0,0-.06,0,0,0-.06l.07-.11-.08,0c0-.22.29-.28.36-.46h0l0,.1.15-.2h0s0,.05,0,0l0,.08s0,.11,0,.07l0-.11.09-.07,0,.06.1-.13ZM48.88,7.38V7.06c.45-.45.34-.62.27-1.17,0-.25.17-.47.17-.68a17.76,17.76,0,0,0-.12-1.89c0-.18-.14-.34-.18-.52h.18A1.81,1.81,0,0,0,49,2.21l.15-.11c2.2.13,2.16,2.32,3.33,3.25.12.09.2.25.37.28s.17-.08.27-.08.2.07.3.11.11.16.22.16l.07-.16c.14,0,.27-.1.4-.07a1.85,1.85,0,0,0,.46,0c-.13-.3-.93.13-.93-.26.5,0,.94-.06,1.44-.06a.47.47,0,0,1-.36.25.86.86,0,0,0,.13.23l-.13.11.19.06c.12-.25.14-.17.38-.17l0-.08h.07l0,.1h0c0-.18.23-.19.37-.14a2.23,2.23,0,0,0-.13.44c.07,0,.38,0,.38.09h0l.15-.2A.2.2,0,0,0,56.1,6l0-.13c.14,0,.34.13.34-.1a6.46,6.46,0,0,1,.67.29v0c-.27,0-.61-.21-.61.23-.15,0-.17-.09-.15-.23s0,0-.06,0c-.24.75-2,.9-2.48,1.48-.07.07,0,.28,0,.37s-.09.19-.11.3a1.82,1.82,0,0,0,.07.44c0,.08,0,.17,0,.24a10.56,10.56,0,0,0,.1,1.07L54,10c.23-.23.78-.18,1-.25a5.72,5.72,0,0,0,.56-.35c.25-.6,1-1.11,1.13-1.63,0-.07,0-.12,0-.21a1.87,1.87,0,0,0,.6-1.5c-.1-.34-.51-.39-.77-.52l.06,0c.67.19,1.17.36,1.06,1.17a17.68,17.68,0,0,0-.3,2.44c0,.05-.07.11-.09.15a1.22,1.22,0,0,0-.18.36,13.62,13.62,0,0,0-.31,1.57c0,.29-.15,1.59-.52,1.6.08.6-1.31.69-1.78.86s-.93,1.81-1,2.26c0,.19-.44.44-.45.62A13.18,13.18,0,0,1,52.68,19a11.49,11.49,0,0,1-.54,1.25,2.26,2.26,0,0,0,0,.46A11,11,0,0,0,52,21.9c0,.14.09.55.07.67s-.26.44-.35.44-.07-.13-.12-.14c0,.25,0,.52,0,.75l0,0-.16-.1h-.05c0,.11,0,.78-.15.78a.92.92,0,0,1-.06-.33H51V24l.09-.1s-.3.23-.36.22-.17-1.18.15-1.38l.11.09v-.17l-.41,0c0-.22-.29-1.44-.46-1.45-.14.26-.27.88.06,1a.82.82,0,0,1,0,.35.06.06,0,0,1-.07,0l0-.29-.19,0a5.61,5.61,0,0,1,.06.59l-.13,0c0-.19,0-.4-.06-.6a2.45,2.45,0,0,1-.2-1.3c0-.1.09-.14.09-.24a4.93,4.93,0,0,0-.2-.59,16.71,16.71,0,0,0,0-1.87c0-.27-.18-.54-.2-.8-.08-.9.32-1.08-.21-2.11a19.76,19.76,0,0,1-2.49.66c-.19.06-.35.21-.56.26a5.31,5.31,0,0,1-1.14-.16c-.22-.17-.28-.91-.35-1.21-.53,0-1,.63-1.35-.13a.43.43,0,0,0-.13-.17l-.11,0A5.77,5.77,0,0,0,42.6,14s-.07-.23-.07-.23c-.46-.25-.1-1.63-.13-1.91a2.09,2.09,0,0,0,.29-.65c.27-.16.23-.64.23-.71l.15-.13c0-.16.4-.74.36-.84s.26-.69.28-.7a.6.6,0,0,0,0-.14s.43-1.11.46-1.23h.11c0-.09.24-.6.33-.6S45,7.8,45,7.92l.15.26a1,1,0,0,1,0,.84l.13,0V9h.08l.05,0c.36,0,.48-.32.77-.41A6.66,6.66,0,0,0,47,8.18a4.62,4.62,0,0,1,.6-.2A5.94,5.94,0,0,1,48.88,7.38Zm0,1.79c-.3.78-1.81,1-2.28,1.35a6.76,6.76,0,0,0-1,1.15c-.07.09,0,.15-.17.31l-.13.49-.21.4c-.18.05-.45.64-.33.79-.18.16-.22.24-.13.47l.2-.09c.47.07.88-.86,1.78-1a3.82,3.82,0,0,0,1.87-.59c.18-.35.74-.81.82-1.11.11-.46-.2-.83-.2-1.25A3.57,3.57,0,0,0,48.89,9.17Zm1.35,14.16h-.06s0,0,0,0,0-.16,0-.22-.17-.06-.26-.13c-.07.24,0,.31.09.51a1.57,1.57,0,0,1,.08.31h0l.08-.15Zm1.49-.23c0,.27,0,.51,0,.77C51.85,23.87,51.91,23.2,51.73,23.1Zm-1.34.21a1.3,1.3,0,0,0,0,.76l0,0c.05,0,0-.06,0-.08C50.46,23.8,50.53,23.48,50.39,23.31ZM55.88,5.66v.23l0,0C56,5.89,55.92,5.69,55.88,5.66Zm-.37-.21.1,0,.18,0a1.19,1.19,0,0,0,.42,0h0c-.33,0-.63-.13-1-.13l-.14.13v0c.05,0,.06,0,.12,0Zm.47.23v.06h.28A1.2,1.2,0,0,0,56,5.66Zm15.49,7.09s0,0,0,0-.09.23-.11.23a.72.72,0,0,1-.08.27s-.13.07-.15.11,0,.13-.06.13,0,0,.06,0a.92.92,0,0,0,.51-.12l.34-.09.33,0a.66.66,0,0,1,.27,0s.11,0,.13,0c.27.1.49-.13.64-.31,0-.15,0-.35,0-.5a1.32,1.32,0,0,0-.07-.3c0-.08,0-.14-.09-.2s-.09-.06-.11-.06l-.18-.07a.56.56,0,0,0-.4,0l-.07-.06c-.09-.11-.26-.13-.38-.18l-.28-.11a2,2,0,0,1,.14.41,1,1,0,0,1-.33.75ZM64,10c0-.07,0-.39,0-.36,0-.14-.07-.23,0-.35-.16,0-.11-.78-.14-.92l-.07-.23a.84.84,0,0,0-.05-.17l-.07-.15a1.28,1.28,0,0,1-.29-.52,1.4,1.4,0,0,0-.17-.57A1.25,1.25,0,0,1,63,6.59a.42.42,0,0,1-.09.3,3.16,3.16,0,0,1-.17.52,1.62,1.62,0,0,0-.07.59l.07.25c0,.09,0,.16,0,.24s0,.12,0,.15,0,.28,0,.43a4.17,4.17,0,0,1,.08.49c0,.17-.09.25-.1.39s0,.4,0,.59l-.1.29a3.38,3.38,0,0,0-.13.42c0,.1,0,.3,0,.3s0,.07,0,.12,0,.42,0,.63-.06.23-.07.35v.25c0,.18,0,.37-.07.55a2.79,2.79,0,0,1-.1.39c0,.09,0,.39,0,.47,0,.24,0,.73,0,.75h0a1.8,1.8,0,0,0-.07.35c0,.12-.1.21-.13.32a1.31,1.31,0,0,0,0,.68,1.34,1.34,0,0,1,0,.41c-.06.28.15.65,0,.89,0,.17-.06.28-.07.45a2,2,0,0,0,.55,1.59c.09.08.25.2.39.13l.14-.19a2.54,2.54,0,0,0,.13-1.77,2.23,2.23,0,0,1,0-.27,5,5,0,0,1,.13-.88,3.15,3.15,0,0,1,0-.53c-.28-.17-.14-.85-.08-1.14a1.25,1.25,0,0,0,0-.51,3,3,0,0,1,.11-.64,2,2,0,0,1,.11-.5,4,4,0,0,1,.16-.62s.11-.54.15-.72.16-.37.17-.44a1,1,0,0,1,.1-.35s0-.12,0-.16a2,2,0,0,1-.1-.21v-.32c0-.07.07-.13.08-.2A2.87,2.87,0,0,1,64,10Zm8.37,7.48v-.08h-.17c-.31.25-1.26.34-1.35.51h-.17c-.14,0-.38.22-.53.24s-.4,0-.59.07a7.32,7.32,0,0,0-.82.35,3.2,3.2,0,0,0-.83.25l-.23,0c-.17-.12-.94.3-1.12.39,0,0-.21-.08-.27-.09-.36,0-.61.21-.91.23s-.44,0-.65,0-.22.1-.34.08-.15-.09-.36-.05c.13.22.64,1.48.86,1.53s.29,0,.34.08c.22-.08.92-.18,1-.33h.1c.12-.06.55-.21.6-.3a5.37,5.37,0,0,0,1.21-.4.7.7,0,0,0,.27-.11c0-.09.36-.18.43-.21s.33-.2.49-.29a12.36,12.36,0,0,0,1.17-.82c.49-.34,1.1-.54,1.6-.86A2.75,2.75,0,0,0,72.36,17.45ZM64.1,8.9s.06,0,.09,0,.66.3.75.38,0,.27,0,.37a.5.5,0,0,0,.25.35c.08,0,.17,0,.28,0s.31,0,.46,0l.27,0a1.13,1.13,0,0,1,.41,0,.32.32,0,0,1,.11.12,2,2,0,0,1,.06.35c0,.11,0,.19,0,.32a2.18,2.18,0,0,1,0,.43c0,.11-.11.18-.14.27a1.94,1.94,0,0,0-.33.07l-.25.13a4.6,4.6,0,0,0-.72.31c-.11.06-.2.14-.31.21a2.26,2.26,0,0,0-.45.31l-.22.22a.12.12,0,0,0,.05.1v.07c-.09,0-.22.16-.26.22s0,.17,0,.22.07,0,.07.07c.06.21.47.34.67.33a1.26,1.26,0,0,0,.39.5l.3.06.24,0c0,.09,0,.19,0,.19v.15s0,.28-.12.38a1.08,1.08,0,0,1-.13.29s-.06.12-.06.12c-.21,0-.53.48-.53.51s-.14.21-.19.3,0,.08,0,.12a1.89,1.89,0,0,1-.21.49v.2a3.52,3.52,0,0,1,.15.46.94.94,0,0,0,.29.37c0,.09.16.1.22.11a2,2,0,0,0,.65,0l.38-.1a3,3,0,0,0,.41-.09l.43-.22a4.91,4.91,0,0,0,.79-.28s.17-.1.18-.14a2.33,2.33,0,0,0,.58-.36c.07,0,.27-.11.33-.16s.29-.14.31-.15.19,0,.28-.08l.28-.14c.12-.05.25-.08.38-.12s.51-.32.53-.36a2.11,2.11,0,0,1,.38-.31.57.57,0,0,0,.27-.34.68.68,0,0,1,.07-.2l.06-.07h-.22c-.24,0,0-.44.09-.5a2.69,2.69,0,0,0-.49,0c-.1,0-.29-.09-.28-.12a3.69,3.69,0,0,0-.82.06s.08-.26.08-.33a2.4,2.4,0,0,1,.14-.55c-.1,0,0-.09-.07-.15h0s.3-.21.38-.13.41-.61.44-.65a3,3,0,0,0,.5-.51.83.83,0,0,0,0-.15,1.13,1.13,0,0,0,.11-.22c0-.06,0-.11,0-.16l0-.09a.45.45,0,0,0-.06-.28,1,1,0,0,0-.34-.31l-.54-.39-.23-.13-.08-.08A.88.88,0,0,0,70,10s0-.08.07-.1a1.47,1.47,0,0,1,.17-.55l.12-.14s.45-.43.43-.46c.16,0,.4-.53.42-.55a2.12,2.12,0,0,1,.2-.28c.1-.16,0-.31,0-.5s0-.1.06-.15a.34.34,0,0,0,0-.28,2.68,2.68,0,0,0-.28-.49c0-.08-.14-.21-.17-.19,0-.15-.23-.24-.36-.25-.16.16-.8.18-1.06.27a3.38,3.38,0,0,0-.61.1,3.85,3.85,0,0,1-.46.13s-.34.14-.52.27a1.55,1.55,0,0,0-.49.14,1.32,1.32,0,0,1-.19.08l-.21,0a.31.31,0,0,0-.18,0l-.37.18a1.36,1.36,0,0,0-.43.19s-.34.21-.39.21a2.07,2.07,0,0,0-.26.06s-.06,0-.08.07,0,0,0,0-.12.16-.12.16a.43.43,0,0,0-.28.17,1.7,1.7,0,0,0-.34.23C64.26,8.46,64,8.55,64.1,8.9Zm11.69-.59a1.25,1.25,0,0,1,.14-.56,4.52,4.52,0,0,1,.06-1c-.45,0,.08-1.78,0-2A5.16,5.16,0,0,0,74.76,3a1.51,1.51,0,0,0-.68-.16c-.76.22-2.41.14-2.91.66a1.88,1.88,0,0,0-.82.05l0,.06A6.67,6.67,0,0,0,69,3.88H68.8c-.42.22-1.11.23-1.45.55,0,0-.5.19-.66.29s-.56.48-.92.41a18,18,0,0,0-1.83.65c0,.12.7.06.71.43.14,0,.25.09.39.11a2.57,2.57,0,0,0,1.45-.22c.13.07.71-.24.78-.23a.49.49,0,0,1,.46-.18,2.34,2.34,0,0,1,.43-.23,2.25,2.25,0,0,0,.51-.13,7.27,7.27,0,0,1,1.54-.5,2.65,2.65,0,0,0,.67-.1c.08,0,.26-.13.32-.1.35-.17,1.22,0,1.55,0s.42.08.66.16l.21.34c.13,0,.24.42.28.5s-.13.79,0,.89c-.19.46-.18,3.06-.32,3.31A7.09,7.09,0,0,1,73.45,11a9.94,9.94,0,0,1,.11,1.58c0,.3-.17.58-.17.82s.18.82,0,1a20.41,20.41,0,0,1,.34,2.57,4.14,4.14,0,0,0-.39,1,2.44,2.44,0,0,1,0,.27l.06.11a1.24,1.24,0,0,1,0,.33c0,.12.09.6-.11.59s-.35-.33-.53-.46c0,0,0,0,0,0-.19-.17-.44-.45-.71-.3a2.54,2.54,0,0,0,.47,1.43l.07.06a4.48,4.48,0,0,0,.62,1.16s0,.11,0,.13c.16.29.36,1.15.46,1.3.33.47,1.52.95,1.6,1s.07,0,.1,0v-.09c.22,0,.28-.16.39-.31.6-.74.33-1.11.37-1.92a5.54,5.54,0,0,0,.14-1.41c0-.23-.42-1.1-.07-1.22a4,4,0,0,0-.09-1.07,4.42,4.42,0,0,0,.06-1.7c-.05-.46.08-1,0-1.45-.13-1.07-.07-2.15-.11-3.22,0-.5-.09-.94-.07-1.45C76,9.43,75.82,8.61,75.79,8.31Zm37.45,11.3c-.06-.11-.21-.13-.3-.16s0,0,0,0-.18-.17-.32-.25,0-.21,0-.23c.06-.22.37-1,.42-1.19a3.3,3.3,0,0,0,0-.62,1.71,1.71,0,0,1,0-.49,2.44,2.44,0,0,0,0-.54,2.06,2.06,0,0,0-.33-.4,2.34,2.34,0,0,1-.32-.54,1.39,1.39,0,0,0-.42-.31c-.08,0-.12-.1-.2-.14a.84.84,0,0,0-.45-.12c-.16,0-.33.05-.47,0s-.17-.08-.25-.1l-.48.26c-.15.11-.29.24-.45.34s-1.45.71-1.8.91c-.15.09-.34,0-.48.13-.34,0-.33-.1-.51-.32l-.16-.18a1.2,1.2,0,0,0-.13-.31c-.21-.19-.49-.16-.73-.29a.89.89,0,0,1-.25-.26l-.08-.11c-.09,0-.1,0-.14.06,0,.2-.12.66-.11.73a1.75,1.75,0,0,0-.05.56,6.83,6.83,0,0,1,.18.81,5.85,5.85,0,0,0,0,.85c0,.07,0,.79,0,.93a4.62,4.62,0,0,0,0,.65,7.15,7.15,0,0,0,.17.83c0,.06.13.4.16.48l.06.15c0,.26,0,.2,0,.47a.41.41,0,0,0,.25.34c.12,0,.25,0,.35.07a3.31,3.31,0,0,0,.48.22c.11.07.15.34.33.3s.1-.23.12-.31.18-.26.23-.41a2.72,2.72,0,0,0,0-.42l.09-.47c0-.23,0-.1.08-.34s.07-.64.1-.81.08-.57.09-.73-.18-.3-.22-.47,0-.23,0-.33a.47.47,0,0,1,0-.31s0,0,.08,0a1.57,1.57,0,0,0,.86,0c.1,0,.24-.26.32-.35a4,4,0,0,1,.81-.57s.11.15.12.19a1.62,1.62,0,0,1,0,.79c0,.15-.6.72-.64.77-.26.28-.62.48-.74.85.05,0-.07.09-.09.1l0,.22c0,.12-.11.9,0,1.09A1.21,1.21,0,0,0,109,21c.1.05.15.16.26.2a5,5,0,0,0,.91.05,5.17,5.17,0,0,1,1-.16,3.56,3.56,0,0,1,.57.09,2.88,2.88,0,0,0,.72,0c.12-.05.22-.12.32-.17a1.51,1.51,0,0,0,.22-.11c.08-.05.19-.12.21-.22s0-.22,0-.32S113.3,19.75,113.24,19.61Zm-6-8.29a3,3,0,0,0-.47.1l0,.11a.57.57,0,0,0,0,.26,3.56,3.56,0,0,0,.5.76l.51.45a1.25,1.25,0,0,0,.42.2,2.77,2.77,0,0,0,.58,0l.5.09c.24,0,.4.21.62.27a1.52,1.52,0,0,0,.42-.06,1.15,1.15,0,0,0,.32,0c.1,0,.17-.11.27-.14a1.48,1.48,0,0,0,.33-.09,1.45,1.45,0,0,0,.48-.73c0-.13-.06-.25,0-.36a.44.44,0,0,1,.19-.17s.15,0,.18-.1,0-.28,0-.41-.55-.19-.66-.14-.29.08-.43.05a11,11,0,0,0-1.1-.26,4.16,4.16,0,0,0-.61,0s-1,0-1.36.1l-.15,0A2.17,2.17,0,0,0,107.28,11.32Zm4.36-2.51c-.07-.09-.26-.1-.36-.16a1.7,1.7,0,0,1-.24-.22.58.58,0,0,0-.47-.12,2.16,2.16,0,0,1-.36,0,4.35,4.35,0,0,1-.58-.1,3.05,3.05,0,0,0-.74,0l-.62.18a.5.5,0,0,0-.2.08.88.88,0,0,0-.36.14c-.12,0-.14.08-.18.17-.15.3.12.56.4.64a5.78,5.78,0,0,1,.74.38l.17.18.19.09c.22.1.8.36.85.36l.46.13h.74c.16,0,.25.16.43.06s.3-.46.36-.52a.75.75,0,0,1,.15-.2,2,2,0,0,1,0-.49c0-.17-.14-.18-.25-.23S111.7,8.87,111.64,8.81Zm-8.19,2.68a.8.8,0,0,0-.19-.13l-.17-.19a1.33,1.33,0,0,0-.34-.16,1.24,1.24,0,0,0-.53-.25,2.66,2.66,0,0,0-.37.07c0-.26.16-.42.22-.64a2.6,2.6,0,0,0,0-.56c0-.11.08-.2.08-.31a3.88,3.88,0,0,0-.61-1.68l0-.23a2.72,2.72,0,0,0-.19-.5.74.74,0,0,0-.45-.38.67.67,0,0,0-.12.36v.17a4,4,0,0,0-.24,1,4.47,4.47,0,0,0-.37.64l0,.19-.12.23a7.56,7.56,0,0,1-.3.71l-.44.86-.1.27-.3.33a3.24,3.24,0,0,0-.2.36L98.4,12a3.22,3.22,0,0,0-.14.44,2.49,2.49,0,0,0-.12.47v.42c0,.23-.08.48,0,.68s.09.07.14.11a.69.69,0,0,1,.2.28,1.73,1.73,0,0,1,0,.6v.33l0,.31a.64.64,0,0,1,.1-.13l.06-.25v-.05h0s0,0,0,.05a.29.29,0,0,1,0,.14l0,.05h.05c0-.07.07-.12.1-.17s.06-.38.19-.53l.31-.34.17-.13.48-.48.28-.24c.09-.1.32-.41.43-.44.26-.08.48.17.56.38l.06.42a5.16,5.16,0,0,1,.1.9c0,.13,0,.85,0,1.1s-.11.41-.15.62-.11,1-.13,1.16a4.62,4.62,0,0,0-.16.52c0,.17-.2,1.05-.22,1.34l0,.35V21a.65.65,0,0,0,.59.66c0-.12.18-.24.26-.33,0,.08.45,0,.25-.18l0-.23c.06-.21.43-.2.43-.2s.25-.32.3-.45a8.15,8.15,0,0,0,.12-.89l.06-.63a3.45,3.45,0,0,1,0-.64c0-.2.06-.46.09-.65s.13-1.15.17-1.31.09-.71.11-.76,0-.89,0-1,0-.52.06-.77-.08-.58-.05-.82a2.13,2.13,0,0,1,.18-.41,1.85,1.85,0,0,0,.09-.63A.56.56,0,0,0,103.45,11.49Zm10.49-5.68c-.25-.31-.94-.13-1.31-.15a3.31,3.31,0,0,0-1,0c-.13,0-.37,0-.35-.18a.71.71,0,0,0,0-.26,3.85,3.85,0,0,1-.08-.47,1.9,1.9,0,0,0,0-.58,1.09,1.09,0,0,0-.39-.28,1.74,1.74,0,0,1-.22-.05l-.28-.19-.27-.1c-.1,0-.23-.08-.34-.13a2,2,0,0,0-.46-.23,1.88,1.88,0,0,0-.42-.14c-.08,0-.16,0-.23.07a2.51,2.51,0,0,0-.33.63s0,0,0,0-.13,0-.2,0-.37.2-.26.16l0,.05a.39.39,0,0,0-.15.06c-.23.11-.79.64-.49.52l0,0a.62.62,0,0,0-.12.08,1.76,1.76,0,0,1-.54.2.59.59,0,0,1-.07.16s.07.07.14.07.5-.16.53-.37a1.94,1.94,0,0,1,.2.05l.14-.05a1.39,1.39,0,0,1,.67,0c0,.14-.49.11-.6.09a2.31,2.31,0,0,1-.35.18s.17.08.21.1a3.42,3.42,0,0,0,.66.07,1.53,1.53,0,0,1,.87.69,1.48,1.48,0,0,1-.27.32l-.22.11-.28,0c-.19,0-.9.2-1,.19l-.77.06a5,5,0,0,0-.63.18l-.61.09a3.07,3.07,0,0,0-.65.07L104,7s-.27.15-.32.19h0s-.07-.11-.07-.1-.11.1-.14.14-.06.16-.06.28c0,.4.2.34.49.45a1.26,1.26,0,0,0,.34.13,2.57,2.57,0,0,0,.76-.23,4.78,4.78,0,0,1,.77-.16l.74-.2a5.7,5.7,0,0,1,1.18-.18c.5,0,1.1,0,1.62,0,.14,0,1.56,0,1.71,0s.31,0,.49,0a9.5,9.5,0,0,0,1-.16c.18,0,.35.11.54.08s.41-.12.45-.11.05-.15.06-.19-.08-.28,0-.4.15-.09.22-.13S114.12,6,113.94,5.81Z" style="fill:url(#未命名的渐变_21-2)"/><polygon points="111.6 26.04 109.02 30.5 106.5 26.04 105.38 26.04 105.38 32.17 106.42 32.17 106.42 28.66 108.35 32.17 109.13 32.17 111.2 28.66 111.2 32.17 112.58 32.17 112.58 26.04 111.6 26.04" style="fill:url(#未命名的渐变_21-3)"/><path d="M101.82,26a2.61,2.61,0,0,0-2.09.85A3.26,3.26,0,0,0,99,29v.35a3,3,0,0,0,.76,2.19,3,3,0,0,0,4,0,3,3,0,0,0,.76-2.21V29a3.33,3.33,0,0,0-.69-2.16A2.45,2.45,0,0,0,101.82,26Zm1.2,3.27a3.59,3.59,0,0,1-.3,1.67,1,1,0,0,1-.94.51c-.53,0-.87-.16-1-.47a4.47,4.47,0,0,1-.23-1.73v-.15a4.29,4.29,0,0,1,.25-1.74,1,1,0,0,1,1-.48c.54,0,.87.17,1,.54a5,5,0,0,1,.22,1.68Z" style="fill:url(#未命名的渐变_21-4)"/><path d="M96.8,26a3,3,0,0,0-2.18.85A2.91,2.91,0,0,0,93.75,29v.25a2.91,2.91,0,0,0,.85,2.25,3.24,3.24,0,0,0,2.23.76,4.41,4.41,0,0,0,.94-.09,2.35,2.35,0,0,0,.58-.18v-.95a4.56,4.56,0,0,1-.58.18,3.49,3.49,0,0,1-.86.09,1.46,1.46,0,0,1-1.17-.53,2.52,2.52,0,0,1-.43-1.61v-.09a2.52,2.52,0,0,1,.46-1.6,1.55,1.55,0,0,1,1.29-.58,4.06,4.06,0,0,1,.75.06,3.91,3.91,0,0,1,.54.17v-.95a2.27,2.27,0,0,0-.61-.17A5.83,5.83,0,0,0,96.8,26Z" style="fill:url(#未命名的渐变_21-5)"/><polygon points="90.34 29.56 92.35 29.56 92.35 28.61 90.34 28.61 90.34 26.96 92.94 26.96 92.94 26.04 88.84 26.04 88.84 32.17 93.11 32.17 93.11 31.25 90.34 31.25 90.34 29.56" style="fill:url(#未命名的渐变_21-6)"/><polygon points="85.32 26.04 83.81 26.04 83.81 32.17 87.83 32.17 87.83 31.25 85.32 31.25 85.32 26.04" style="fill:url(#未命名的渐变_21-7)"/><polygon points="80.11 29.56 82.11 29.56 82.11 28.61 80.11 28.61 80.11 26.96 82.7 26.96 82.7 26.04 78.6 26.04 78.6 32.17 82.88 32.17 82.88 31.25 80.11 31.25 80.11 29.56" style="fill:url(#未命名的渐变_21-8)"/><polygon points="73.43 26.96 74.93 26.96 74.93 32.17 76.44 32.17 76.44 26.96 77.9 26.96 77.9 26.04 73.43 26.04 73.43 26.96" style="fill:url(#未命名的渐变_21-9)"/><path d="M67.31,26l-2.26,6.13h1.24l.5-1.47H69l.5,1.47h1.55L68.73,26Zm-.23,3.78.79-2.27.83,2.27Z" style="fill:url(#未命名的渐变_21-10)"/><polygon points="63.38 29.69 60.18 26.04 59.37 26.04 59.37 32.17 60.44 32.17 60.44 28.32 63.81 32.17 64.46 32.17 64.46 26.04 63.38 26.04 63.38 29.69" style="fill:url(#未命名的渐变_21-11)"/><rect x="56.36" y="26.04" width="1.52" height="6.13" style="fill:url(#未命名的渐变_21-12)"/><polygon points="53.27 28.59 51.54 28.59 51.54 26.04 50.03 26.04 50.03 32.17 51.54 32.17 51.54 29.53 53.27 29.53 53.27 32.17 54.78 32.17 54.78 26.04 53.27 26.04 53.27 28.59" style="fill:url(#未命名的渐变_21-13)"/><path d="M47.47,26a3,3,0,0,0-2.18.85A2.91,2.91,0,0,0,44.41,29v.25a2.88,2.88,0,0,0,.86,2.25,3.22,3.22,0,0,0,2.22.76,4.44,4.44,0,0,0,.95-.09A2.24,2.24,0,0,0,49,32v-.95a3.9,3.9,0,0,1-.57.18,3.46,3.46,0,0,1-.85.09,1.45,1.45,0,0,1-1.18-.53A2.52,2.52,0,0,1,46,29.18v-.09a2.52,2.52,0,0,1,.45-1.6,1.53,1.53,0,0,1,1.28-.58,4.38,4.38,0,0,1,.77.06,3.52,3.52,0,0,1,.52.17v-.95a2.1,2.1,0,0,0-.59-.17A6.07,6.07,0,0,0,47.47,26Z" style="fill:url(#未命名的渐变_21-14)"/><rect x="124" y="0.5" width="1" height="34" style="fill:url(#未命名的渐变_21-15)"/><path d="M134.83,15.15H165.9V17.9H134.83Z" style="fill:url(#未命名的渐变_35)"/><path d="M172.21,14.9a56.76,56.76,0,0,1-.69,10.91,18.54,18.54,0,0,1-3.12,7c-.61-.78-1.2-1.47-1.79-2.1a17.36,17.36,0,0,0,2.6-6,56.83,56.83,0,0,0,.5-9.15V3.37h26.53V28.31q0,4-3.88,4.09c-1.47,0-3.12,0-4.93-.06-.09-.63-.25-1.47-.5-2.53,2,.12,3.57.19,4.65.19q2.22,0,2.22-2.1V5.62H172.21Zm1.5-.44h8V11.31h-6.59V9.18h6.59V6.43h2.44V9.18h6.59v2.13h-6.59v3.15h8.06v2.13H173.71Zm2.56,4.72h13.38v8.44h-11v2h-2.38Zm11,6.32V21.31h-8.62V25.5Z" style="fill:url(#未命名的渐变_35-2)"/><path d="M223.83,17.81V16.65h-8.22V28.9h9.16V20h2.63V32.4h-2.63V31.28h-23.5V20h2.66v8.9h9V16.65H202.11V5.43h2.66v8.85h8.13V2.56h2.71V14.28h8.22V5.43h2.66V17.81Z" style="fill:url(#未命名的渐变_35-3)"/><path d="M244.29,4.46,232.68,32.68h-2.86L241.43,4.46Z" style="fill:url(#未命名的渐变_35-4)"/><path d="M253.16,3.93l2.06-1.47q3.51,2.16,7.69,11.07,5.85,12.78,12.69,15.59l-2.19,2.75q-6.84-4.07-12.65-17.12c-.32-.7-.62-1.37-.93-2a34.53,34.53,0,0,1-13.48,19.31,16.49,16.49,0,0,0-1.91-2.35Q254.58,23.32,258.1,9.5A15.67,15.67,0,0,0,253.16,3.93Z" style="fill:url(#未命名的渐变_35-5)"/><path d="M276.54,15.25q14.93-3,23.65-6.47l1.25,2.09a139.58,139.58,0,0,1-15.79,4.66h18.29V32.62h-2.31V31.25H284.07v1.43h-2.31V16.45l-4.38.95C277.15,16.71,276.87,16,276.54,15.25ZM286.16,4l1.72,1.84q-4.47,3.5-9.06,6.59l-1.47-2A85.94,85.94,0,0,0,286.16,4Zm15.47,13.65H284.07v2.44h17.56Zm-17.56,6.94h17.56V22.15H284.07Zm0,4.53h17.56V26.65H284.07Zm6.72-27h2.37v8.56h-2.37ZM297,5.81,298.32,4Q303,6.5,307.54,9.34L306,11.53Q301.89,8.62,297,5.81Z" style="fill:url(#未命名的渐变_35-6)"/><path d="M308.41,12.43,310,10.62q2.53,1.76,5.32,4c-.75.88-1.36,1.55-1.82,2Q310.23,13.79,308.41,12.43Zm1,19.32a102.44,102.44,0,0,0,3.25-12.13c.92.4,1.76.72,2.53,1q-1.41,5.4-3,12Zm.25-27.47,1.59-1.66q2.28,1.82,5.1,4.31l-1.85,1.85Q311.88,6.16,309.63,4.28Zm9.91,14h2.37q0,6.84-1.28,9.59A11,11,0,0,1,315.44,33a12.45,12.45,0,0,0-1.59-2.07c2.37-1.25,3.88-2.68,4.53-4.31S319.54,22.25,319.54,18.25ZM333.07,10q2.43,2.82,5.4,6.85-1.16.72-2.25,1.47c-.52-.76-1-1.49-1.51-2.19q-7.68.35-14.11.69a13.23,13.23,0,0,0-2.5.37L317,14.81a12.46,12.46,0,0,0,2.18-1.44A35.5,35.5,0,0,0,324,8.28H317.1V6.06H327c-.79-1.23-1.55-2.3-2.26-3.22l2.06-1.28c.77,1,1.64,2.12,2.62,3.44l-1.62,1.06h10.62V8.28H324.63l2.06.87a60.16,60.16,0,0,1-5.43,5.25q5-.15,11.95-.4c-.73-1-1.42-1.89-2.08-2.72Zm-7.38,8.29H328V32.18h-2.35Zm5.72-.13h2.35V28.59c0,1,.37,1.44,1.12,1.44H336c.65,0,1.06-.53,1.22-1.6a37.68,37.68,0,0,0,.28-3.93,22.14,22.14,0,0,0,2.35.9c-.15,1.75-.3,3.1-.47,4-.25,1.86-1.24,2.78-3,2.78h-1.94c-2,0-3-1.21-3-3.65Z" style="fill:url(#未命名的渐变_35-7)"/><path d="M340.57,30.06h14.34V28.28H342.38V26.65h12.53V24.87h-7.44v.81h-2.12V16.09h21.41v9.59h-2.13v-.81H357.1v1.78h12.56v1.63H357.1v1.78h14.34v1.69H340.57Zm.25-17.16h30.5v1.69h-30.5Zm4.78-9.59h20.94v8.94h-2.13V11.4H347.72v.85H345.6Zm1.87,16.4h7.44v-2h-7.44Zm0,3.54h7.44v-2h-7.44ZM364.41,4.93H347.72V6.59h16.69ZM347.72,9.78h16.69V8.09H347.72Zm16.91,7.93H357.1v2h7.53Zm-7.53,5.54h7.53v-2H357.1Z" style="fill:url(#未命名的渐变_35-8)"/><path d="M406.57,20.26H372V17.9h34.56Z" style="fill:url(#未命名的渐变_35-9)"/><path d="M407,12.4l1.56-1.78c1.91,1.33,3.7,2.68,5.34,4-.75.86-1.35,1.52-1.81,2C410.24,15,408.55,13.57,407,12.4Zm.93,19.53a102.45,102.45,0,0,0,3.19-12c.92.4,1.76.72,2.53,1-1.06,4.09-2.05,8-3,11.85Zm.25-27.84,1.6-1.66q1.88,1.44,5.22,4.35c-.71.68-1.33,1.3-1.85,1.84C410.91,6.47,409.26,5,408.19,4.09Zm5.5,6.81a27.59,27.59,0,0,0,6.25-9h2.66c-.5,1.09-1,2.12-1.58,3.1h16.52V7.21H419.71a33.08,33.08,0,0,1-4.42,5.54A20.72,20.72,0,0,0,413.69,10.9Zm.25,6.81h3.21l1.11-7.81H435.1c-.06,2.9-.13,5.5-.19,7.81h3.28V19.9h-3.36c-.06,2.25-.12,4.17-.18,5.75h2.54v2.13h-2.68a6.35,6.35,0,0,1-1.25,3.43c-.75.86-2.09,1.29-4,1.29-1.09,0-2.48,0-4.19-.13-.11-.71-.25-1.55-.44-2.53,2,.19,3.57.28,4.66.28a2.59,2.59,0,0,0,2.81-2.34H416V25.46l.79-5.56h-2.89Zm18.55,2.19H419.27l-.76,5.75h13.76C432.35,23.94,432.43,22,432.49,19.9Zm.2-7.87H420.32l-.77,5.68h13C432.6,15.94,432.65,14.05,432.69,12ZM423,21.81l1.43-1.41c1.4,1.06,2.7,2.14,3.91,3.22l-1.63,1.63C425.49,24.06,424.26,22.91,423,21.81Zm.4-8,1.41-1.41c1.33,1,2.64,2.09,3.94,3.19l-1.6,1.62Q425.26,15.34,423.41,13.81Z" style="fill:url(#未命名的渐变_35-10)"/><path d="M439.38,5.9h14V2.37H456V5.9h13.69V8.12H456v3.19h12V29q0,3.64-3.62,3.68-2.07,0-5.16-.09c-.12-.77-.28-1.62-.47-2.56,2.07.12,3.64.19,4.72.19,1.38,0,2.06-.61,2.06-1.82V13.5H443.85V32.84h-2.47V11.31h12V8.12h-14Zm5.69,18.22h8.37V20.71h-7.37V18.65h9.81c1-1.5,2-3.14,3-4.94L461.22,15c-1,1.39-1.94,2.61-2.78,3.65h4.82v2.06h-7.38v3.41h8.38v2.06h-8.38v6h-2.44v-6h-8.37ZM448.13,15,450,13.71q1.61,1.84,2.91,3.6l-2.06,1.28C450,17.38,449.09,16.17,448.13,15Z" style="fill:url(#未命名的渐变_35-11)"/></svg>