<svg id="hn_bg" xmlns="http://www.w3.org/2000/svg" viewBox="0 0 1306 612"><title>hn_bg</title><path d="M642.38,15.36,627,0l-.39.38H612v2h14.59L641,16.77l0,0V30.38h2v-15h-.65ZM2,595l0,0V581.38H0v15H.64l0,0L16,611.77l.38-.39H31v-2H16.41ZM16,0,.62,15.36l0,0H0v15H2V16.74l0,0L16.41,2.38H31v-2H16.36ZM641,595l0,0-14.38,14.38H612v2h14.65l.38.39,15.36-15.36,0,0H643v-15h-2ZM1305.35,15.38l0,0L1290,0l-.39.38H1275v2h14.59L1304,16.77l0,0V30.38h2v-15ZM665,595l0,0V581.38h-2v15h.64l0,0L679,611.77l.38-.39H694v-2H679.41Zm0-578.26,0,0L679.41,2.38H694v-2H679.36L679,0,663.62,15.36l0,0H663v15h2ZM1304,595l0,0-14.38,14.38H1275v2h14.65l.38.39,15.36-15.36,0,0h.64v-15h-2Z" style="fill:#008fd3;fill-rule:evenodd"/><path d="M14.94.5,16,1.5H628l14,14V595.23l1,.95V15.5L628,.5Zm.06,610-14-14v-580l-1-.95v581l15,15H627.5l-1.06-1Zm663,0-14-14v-580l-1-.95v581l15,15h612.5l-1.06-1ZM1291,.5H677.94l1,1h612l14,14V595.23l1,.95V15.5Z" style="fill:#043f60;fill-rule:evenodd"/></svg>